<?plantuml 1.2026.2?><svg xmlns="http://www.w3.org/2000/svg" xmlns:xlink="http://www.w3.org/1999/xlink" contentStyleType="text/css" data-diagram-type="ACTIVITY" height="1200px" preserveAspectRatio="none" style="width:750px;height:1200px;background:#FFFFFF;" version="1.1" viewBox="0 0 750 1200" width="750px" zoomAndPan="magnify"><defs/><g><ellipse cx="244.6327" cy="31.25" fill="#222222" rx="15.625" ry="15.625" style="stroke:#222222;stroke-width:1.5625;"/><rect fill="#F1F1F1" height="107.863" rx="9.375" ry="9.375" style="stroke:#181818;stroke-width:0.7813;" width="382.14" x="53.5627" y="78.125"/><text fill="#000000" font-family="'Arimo'" font-size="18.75" lengthAdjust="spacing" textLength="350.89" x="69.1877" y="113.7939">Etapa 1: verificar el estado declarado en</text><text fill="#000000" font-family="'Arimo'" font-size="18.75" lengthAdjust="spacing" textLength="323.5336" x="69.1877" y="139.3316">state.lock, la huella del disco y que la</text><text fill="#000000" font-family="'Arimo'" font-size="18.75" lengthAdjust="spacing" textLength="223.0703" x="69.1877" y="164.8692">VM permanezca apagada</text><rect fill="#F1F1F1" height="56.7877" rx="9.375" ry="9.375" style="stroke:#181818;stroke-width:0.7813;" width="377.3588" x="55.9533" y="294.5676"/><text fill="#000000" font-family="'Arimo'" font-size="18.75" lengthAdjust="spacing" textLength="346.1088" x="71.5783" y="330.2365">Reportar "sin cambios" y fin de esta VM</text><ellipse cx="244.6327" cy="411.2427" fill="none" rx="17.1875" ry="17.1875" style="stroke:#222222;stroke-width:1.5625;"/><ellipse cx="244.6327" cy="411.2427" fill="#222222" rx="9.375" ry="9.375" style="stroke:#222222;stroke-width:1.5625;"/><polygon fill="#F1F1F1" points="123.5046,217.238,365.7608,217.238,384.5108,235.988,365.7608,254.738,123.5046,254.738,104.7546,235.988,123.5046,217.238" style="stroke:#181818;stroke-width:0.7813;"/><text fill="#000000" font-family="'Arimo'" font-size="17.1875" lengthAdjust="spacing" textLength="12.6671" x="250.8827" y="273.1113">s&#237;</text><text fill="#000000" font-family="'Arimo'" font-size="17.1875" lengthAdjust="spacing" textLength="242.2562" x="123.5046" y="242.6567">&#191;ya coincide con lo declarado?</text><text fill="#000000" font-family="'Arimo'" font-size="17.1875" lengthAdjust="spacing" textLength="21.0202" x="384.5108" y="230.9521">no</text><path d="M474.6403,513.5726 L474.6403,528.9679 L443.3903,535.2179 L474.6403,541.4679 L474.6403,556.8632 A0,0 0 0 0 474.6403,556.8632 L660.142,556.8632 A0,0 0 0 0 660.142,556.8632 L660.142,529.1976 L644.517,513.5726 L474.6403,513.5726 A0,0 0 0 0 474.6403,513.5726" fill="#FEFFDD" style="stroke:#181818;stroke-width:0.7813;"/><path d="M644.517,513.5726 L644.517,529.1976 L660.142,529.1976 L644.517,513.5726" fill="#FEFFDD" style="stroke:#181818;stroke-width:0.7813;"/><text fill="#000000" font-family="'Arimo'" font-size="20.3125" lengthAdjust="spacing" textLength="152.6892" x="484.0153" y="543.0992">si falla: c&#243;digo 3</text><rect fill="#F1F1F1" height="82.3254" rx="9.375" ry="9.375" style="stroke:#181818;stroke-width:0.7813;" width="397.5151" x="45.8752" y="494.0552"/><text fill="#000000" font-family="'Arimo'" font-size="18.75" lengthAdjust="spacing" textLength="366.2651" x="61.5002" y="529.7241">Etapa 1: crear o ajustar el medio del disco</text><text fill="#000000" font-family="'Arimo'" font-size="18.75" lengthAdjust="spacing" textLength="195.2264" x="61.5002" y="555.2618">en el host si hace falta</text><path d="M448.5963,627.1479 L448.5963,642.5433 L417.3463,648.7933 L448.5963,655.0433 L448.5963,670.4386 A0,0 0 0 0 448.5963,670.4386 L634.098,670.4386 A0,0 0 0 0 634.098,670.4386 L634.098,642.7729 L618.473,627.1479 L448.5963,627.1479 A0,0 0 0 0 448.5963,627.1479" fill="#FEFFDD" style="stroke:#181818;stroke-width:0.7813;"/><path d="M618.473,627.1479 L618.473,642.7729 L634.098,642.7729 L618.473,627.1479" fill="#FEFFDD" style="stroke:#181818;stroke-width:0.7813;"/><text fill="#000000" font-family="'Arimo'" font-size="20.3125" lengthAdjust="spacing" textLength="152.6892" x="457.9713" y="656.6745">si falla: c&#243;digo 2</text><rect fill="#F1F1F1" height="82.3254" rx="9.375" ry="9.375" style="stroke:#181818;stroke-width:0.7813;" width="345.4272" x="71.9191" y="607.6306"/><text fill="#000000" font-family="'Arimo'" font-size="18.75" lengthAdjust="spacing" textLength="314.1772" x="87.5441" y="643.2995">Etapa 2: encender la VM y esperar a</text><text fill="#000000" font-family="'Arimo'" font-size="18.75" lengthAdjust="spacing" textLength="245.9642" x="87.5441" y="668.8372">VBoxService (m&#225;ximo 120 s)</text><path d="M455.9558,740.7233 L455.9558,756.1186 L424.7058,762.3686 L455.9558,768.6186 L455.9558,784.0139 A0,0 0 0 0 455.9558,784.0139 L641.4575,784.0139 A0,0 0 0 0 641.4575,784.0139 L641.4575,756.3483 L625.8325,740.7233 L455.9558,740.7233 A0,0 0 0 0 455.9558,740.7233" fill="#FEFFDD" style="stroke:#181818;stroke-width:0.7813;"/><path d="M625.8325,740.7233 L625.8325,756.3483 L641.4575,756.3483 L625.8325,740.7233" fill="#FEFFDD" style="stroke:#181818;stroke-width:0.7813;"/><text fill="#000000" font-family="'Arimo'" font-size="20.3125" lengthAdjust="spacing" textLength="152.6892" x="465.3308" y="770.2499">si falla: c&#243;digo 2</text><rect fill="#F1F1F1" height="82.3254" rx="9.375" ry="9.375" style="stroke:#181818;stroke-width:0.7813;" width="360.1461" x="64.5597" y="721.2059"/><text fill="#000000" font-family="'Arimo'" font-size="18.75" lengthAdjust="spacing" textLength="328.8961" x="80.1847" y="756.8748">Etapa 3: identificar la direcci&#243;n IP con</text><text fill="#000000" font-family="'Arimo'" font-size="18.75" lengthAdjust="spacing" textLength="265.2019" x="80.1847" y="782.4125">Guest Additions o la tabla ARP</text><path d="M503.3279,854.2986 L503.3279,869.694 L472.0779,875.944 L503.3279,882.194 L503.3279,897.5893 A0,0 0 0 0 503.3279,897.5893 L732.1359,897.5893 A0,0 0 0 0 732.1359,897.5893 L732.1359,869.9236 L716.5109,854.2986 L503.3279,854.2986 A0,0 0 0 0 503.3279,854.2986" fill="#FEFFDD" style="stroke:#181818;stroke-width:0.7813;"/><path d="M716.5109,854.2986 L716.5109,869.9236 L732.1359,869.9236 L716.5109,854.2986" fill="#FEFFDD" style="stroke:#181818;stroke-width:0.7813;"/><text fill="#000000" font-family="'Arimo'" font-size="20.3125" lengthAdjust="spacing" textLength="195.9955" x="512.7029" y="883.8252">si falla: c&#243;digos 1 a 4</text><rect fill="#F1F1F1" height="82.3254" rx="9.375" ry="9.375" style="stroke:#181818;stroke-width:0.7813;" width="454.8904" x="17.1875" y="834.7813"/><text fill="#000000" font-family="'Arimo'" font-size="18.75" lengthAdjust="spacing" textLength="423.6404" x="32.8125" y="870.4502">Etapa 4: sondear y convergir el almacenamiento</text><text fill="#000000" font-family="'Arimo'" font-size="18.75" lengthAdjust="spacing" textLength="191.3451" x="32.8125" y="895.9879">en el sistema invitado</text><path d="M450.6401,967.874 L450.6401,983.2693 L419.3901,989.5193 L450.6401,995.7693 L450.6401,1011.1647 A0,0 0 0 0 450.6401,1011.1647 L636.1418,1011.1647 A0,0 0 0 0 636.1418,1011.1647 L636.1418,983.499 L620.5168,967.874 L450.6401,967.874 A0,0 0 0 0 450.6401,967.874" fill="#FEFFDD" style="stroke:#181818;stroke-width:0.7813;"/><path d="M620.5168,967.874 L620.5168,983.499 L636.1418,983.499 L620.5168,967.874" fill="#FEFFDD" style="stroke:#181818;stroke-width:0.7813;"/><text fill="#000000" font-family="'Arimo'" font-size="20.3125" lengthAdjust="spacing" textLength="152.6892" x="460.0151" y="997.4006">si falla: c&#243;digo 3</text><rect fill="#F1F1F1" height="82.3254" rx="9.375" ry="9.375" style="stroke:#181818;stroke-width:0.7813;" width="349.5147" x="69.8753" y="948.3567"/><text fill="#000000" font-family="'Arimo'" font-size="18.75" lengthAdjust="spacing" textLength="318.2647" x="85.5003" y="984.0255">Etapa 5: verificar con findmnt y df -h</text><text fill="#000000" font-family="'Arimo'" font-size="18.75" lengthAdjust="spacing" textLength="315.6773" x="85.5003" y="1009.5632">y registrar el resultado en state.lock</text><rect fill="#F1F1F1" height="56.7877" rx="9.375" ry="9.375" style="stroke:#181818;stroke-width:0.7813;" width="365.3587" x="61.9534" y="1061.932"/><text fill="#000000" font-family="'Arimo'" font-size="18.75" lengthAdjust="spacing" textLength="334.1087" x="77.5784" y="1097.6009">Fin de la corrida de esta VM (c&#243;digo 0)</text><ellipse cx="244.6327" cy="1167.1572" fill="none" rx="17.1875" ry="17.1875" style="stroke:#222222;stroke-width:1.5625;"/><ellipse cx="244.6327" cy="1167.1572" fill="#222222" rx="9.375" ry="9.375" style="stroke:#222222;stroke-width:1.5625;"/><line style="stroke:#181818;stroke-width:1.5625;" x1="244.6327" x2="244.6327" y1="46.875" y2="78.125"/><polygon fill="#181818" points="238.3827,62.5,244.6327,78.125,250.8827,62.5,244.6327,68.75" style="stroke:#181818;stroke-width:1.5625;"/><line style="stroke:#181818;stroke-width:1.5625;" x1="244.6327" x2="244.6327" y1="351.3553" y2="394.0552"/><polygon fill="#181818" points="238.3827,378.4302,244.6327,394.0552,250.8827,378.4302,244.6327,384.6802" style="stroke:#181818;stroke-width:1.5625;"/><line style="stroke:#181818;stroke-width:1.5625;" x1="244.6327" x2="244.6327" y1="254.738" y2="294.5676"/><polygon fill="#181818" points="238.3827,278.9426,244.6327,294.5676,250.8827,278.9426,244.6327,285.1926" style="stroke:#181818;stroke-width:1.5625;"/><line style="stroke:#181818;stroke-width:1.5625;" x1="384.5108" x2="448.9371" y1="235.988" y2="235.988"/><polygon fill="#181818" points="442.6871,347.1802,448.9371,362.8052,455.1871,347.1802,448.9371,353.4302" style="stroke:#181818;stroke-width:1.5625;"/><line style="stroke:#181818;stroke-width:1.5625;" x1="448.9371" x2="448.9371" y1="235.988" y2="462.8052"/><line style="stroke:#181818;stroke-width:1.5625;" x1="448.9371" x2="244.6327" y1="462.8052" y2="462.8052"/><line style="stroke:#181818;stroke-width:1.5625;" x1="244.6327" x2="244.6327" y1="462.8052" y2="494.0552"/><polygon fill="#181818" points="238.3827,478.4302,244.6327,494.0552,250.8827,478.4302,244.6327,484.6802" style="stroke:#181818;stroke-width:1.5625;"/><line style="stroke:#181818;stroke-width:1.5625;" x1="244.6327" x2="244.6327" y1="185.988" y2="217.238"/><polygon fill="#181818" points="238.3827,201.613,244.6327,217.238,250.8827,201.613,244.6327,207.863" style="stroke:#181818;stroke-width:1.5625;"/><line style="stroke:#181818;stroke-width:1.5625;" x1="244.6327" x2="244.6327" y1="576.3806" y2="607.6306"/><polygon fill="#181818" points="238.3827,592.0056,244.6327,607.6306,250.8827,592.0056,244.6327,598.2556" style="stroke:#181818;stroke-width:1.5625;"/><line style="stroke:#181818;stroke-width:1.5625;" x1="244.6327" x2="244.6327" y1="689.9559" y2="721.2059"/><polygon fill="#181818" points="238.3827,705.5809,244.6327,721.2059,250.8827,705.5809,244.6327,711.8309" style="stroke:#181818;stroke-width:1.5625;"/><line style="stroke:#181818;stroke-width:1.5625;" x1="244.6327" x2="244.6327" y1="803.5313" y2="834.7813"/><polygon fill="#181818" points="238.3827,819.1563,244.6327,834.7813,250.8827,819.1563,244.6327,825.4063" style="stroke:#181818;stroke-width:1.5625;"/><line style="stroke:#181818;stroke-width:1.5625;" x1="244.6327" x2="244.6327" y1="917.1067" y2="948.3567"/><polygon fill="#181818" points="238.3827,932.7317,244.6327,948.3567,250.8827,932.7317,244.6327,938.9817" style="stroke:#181818;stroke-width:1.5625;"/><line style="stroke:#181818;stroke-width:1.5625;" x1="244.6327" x2="244.6327" y1="1030.682" y2="1061.932"/><polygon fill="#181818" points="238.3827,1046.307,244.6327,1061.932,250.8827,1046.307,244.6327,1052.557" style="stroke:#181818;stroke-width:1.5625;"/><line style="stroke:#181818;stroke-width:1.5625;" x1="244.6327" x2="244.6327" y1="1118.7197" y2="1149.9697"/><polygon fill="#181818" points="238.3827,1134.3447,244.6327,1149.9697,250.8827,1134.3447,244.6327,1140.5947" style="stroke:#181818;stroke-width:1.5625;"/><?plantuml-src dPDDRjim48NtEiM3LpRG5lv9DigYS8kcw295a0BPJyYHDJL5gYHbnBrD3z1L3b2WlbY7SOq8o29eD_eP3VazldbAcMAkqbPyJv4wM6veSFao-FoPEiPa7QKBat57BrYSpqSL7omdxh4y6nKZ-MqfhiQTCGpUlW_HSyHYMLNrXqmzOL5Znr4QCHJ13fmosQ1QZDDb-iI-qbBcDowOxIiuGZkmqvlLRYl91EpnRM3zKjrUeUVOaUVlXg3RRyZIHIKDfhz_xGacY3TYMHyyt8ZoTeRSiiSq7NxEAg2-uJv4zGUJ91w6kZi9QQAaHbzrWo8JjrSNsfjow2jsYJ7rOLQnjzACJcSYwpO1z7L8-NZ6Zgs49_swf5JRa3AIe2N3QCXbLUv3PaJPjBc0f9GTwPw71okRW5MXeJITWCjQ3JDQLPTTKQYIEQafIbP_teNxBnnteeHfT_Xnh_FLOSoHPY-obizOgnhgfSz_XrT68f6DaSE3nwVhOdBrSL2diBPMiWIVr0TjotIdr_NDzNz0psgaeCTJuBuGD3mRUNILNAVEUUf4DPrCJP8oTmJnEod1UecOi812dc7Fnp4jwT4SsCvd5M4Rl6whFI9l51QF8uwSz5SwvXTF-VsdYLuUe-PARcCKIwFWONfQCTVHFKRm3m00?></g></svg>