<?plantuml 1.2026.2?><svg xmlns="http://www.w3.org/2000/svg" xmlns:xlink="http://www.w3.org/1999/xlink" contentStyleType="text/css" data-diagram-type="ACTIVITY" height="1084.375px" preserveAspectRatio="none" style="width:554px;height:1084px;background:#FFFFFF;" version="1.1" viewBox="0 0 554 1084" width="554.6875px" zoomAndPan="magnify"><defs/><g><ellipse cx="263.8704" cy="31.25" fill="#222222" rx="15.625" ry="15.625" style="stroke:#222222;stroke-width:1.5625;"/><rect fill="#F1F1F1" height="82.3254" rx="9.375" ry="9.375" style="stroke:#181818;stroke-width:0.7813;" width="447.8781" x="39.9313" y="78.125"/><text fill="#000000" font-family="'Arimo'" font-size="18.75" lengthAdjust="spacing" textLength="416.6281" x="55.5563" y="113.7939">Recibir los par&#225;metros de la VM y leer el estado</text><text fill="#000000" font-family="'Arimo'" font-size="18.75" lengthAdjust="spacing" textLength="257.8144" x="55.5563" y="139.3316">real con lsblk, blkid y findmnt</text><rect fill="#F1F1F1" height="56.7877" rx="9.375" ry="9.375" style="stroke:#181818;stroke-width:0.7813;" width="443.9966" x="41.8721" y="269.03"/><text fill="#000000" font-family="'Arimo'" font-size="18.75" lengthAdjust="spacing" textLength="412.7466" x="57.4971" y="304.6988">Crear una tabla GPT y una partici&#243;n con parted</text><polygon fill="#F1F1F1" points="60.9991,191.7004,466.7417,191.7004,485.4917,210.4504,466.7417,229.2004,60.9991,229.2004,42.2491,210.4504,60.9991,191.7004" style="stroke:#181818;stroke-width:0.7813;"/><text fill="#000000" font-family="'Arimo'" font-size="17.1875" lengthAdjust="spacing" textLength="12.6671" x="270.1204" y="247.5737">s&#237;</text><text fill="#000000" font-family="'Arimo'" font-size="17.1875" lengthAdjust="spacing" textLength="405.7425" x="60.9991" y="217.1191">&#191;el disco declarado carece de tabla de particiones?</text><text fill="#000000" font-family="'Arimo'" font-size="17.1875" lengthAdjust="spacing" textLength="21.0202" x="485.4917" y="205.4145">no</text><polygon fill="#F1F1F1" points="263.8704,357.0676,282.6204,375.8176,263.8704,394.5676,245.1204,375.8176,263.8704,357.0676" style="stroke:#181818;stroke-width:0.7813;"/><rect fill="#F1F1F1" height="56.7877" rx="9.375" ry="9.375" style="stroke:#181818;stroke-width:0.7813;" width="472.047" x="27.8469" y="503.1472"/><text fill="#000000" font-family="'Arimo'" font-size="18.75" lengthAdjust="spacing" textLength="440.797" x="43.4719" y="538.8161">Formatear con mkfs.ext4 o mkfs.xfs seg&#250;n fs_type</text><polygon fill="#F1F1F1" points="88.602,425.8176,439.1387,425.8176,457.8887,444.5676,439.1387,463.3176,88.602,463.3176,69.852,444.5676,88.602,425.8176" style="stroke:#181818;stroke-width:0.7813;"/><text fill="#000000" font-family="'Arimo'" font-size="17.1875" lengthAdjust="spacing" textLength="12.6671" x="270.1204" y="481.6909">s&#237;</text><text fill="#000000" font-family="'Arimo'" font-size="17.1875" lengthAdjust="spacing" textLength="350.5367" x="88.602" y="451.2363">&#191;la partici&#243;n carece de sistema de archivos?</text><text fill="#000000" font-family="'Arimo'" font-size="17.1875" lengthAdjust="spacing" textLength="21.0202" x="457.8887" y="439.5317">no</text><polygon fill="#F1F1F1" points="263.8704,591.1849,282.6204,609.9349,263.8704,628.6849,245.1204,609.9349,263.8704,591.1849" style="stroke:#181818;stroke-width:0.7813;"/><rect fill="#F1F1F1" height="82.3254" rx="9.375" ry="9.375" style="stroke:#181818;stroke-width:0.7813;" width="459.1656" x="34.2876" y="737.2645"/><text fill="#000000" font-family="'Arimo'" font-size="18.75" lengthAdjust="spacing" textLength="427.9156" x="49.9126" y="772.9334">Crear el punto de montaje, a&#241;adir la entrada por</text><text fill="#000000" font-family="'Arimo'" font-size="18.75" lengthAdjust="spacing" textLength="299.6646" x="49.9126" y="798.4711">UUID en fstab y ejecutar mount -a</text><polygon fill="#F1F1F1" points="68.5959,659.9349,459.1448,659.9349,477.8948,678.6849,459.1448,697.4349,68.5959,697.4349,49.8459,678.6849,68.5959,659.9349" style="stroke:#181818;stroke-width:0.7813;"/><text fill="#000000" font-family="'Arimo'" font-size="17.1875" lengthAdjust="spacing" textLength="12.6671" x="270.1204" y="715.8082">s&#237;</text><text fill="#000000" font-family="'Arimo'" font-size="17.1875" lengthAdjust="spacing" textLength="390.5489" x="68.5959" y="685.3536">&#191;el montaje no est&#225; activo ni declarado en fstab?</text><text fill="#000000" font-family="'Arimo'" font-size="17.1875" lengthAdjust="spacing" textLength="21.0202" x="477.8948" y="673.649">no</text><polygon fill="#F1F1F1" points="263.8704,850.8399,282.6204,869.5899,263.8704,888.3399,245.1204,869.5899,263.8704,850.8399" style="stroke:#181818;stroke-width:0.7813;"/><rect fill="#F1F1F1" height="82.3254" rx="9.375" ry="9.375" style="stroke:#181818;stroke-width:0.7813;" width="493.3658" x="17.1875" y="919.5899"/><text fill="#000000" font-family="'Arimo'" font-size="18.75" lengthAdjust="spacing" textLength="462.1158" x="32.8125" y="955.2588">Devolver en pares clave=valor el dispositivo, la tabla,</text><text fill="#000000" font-family="'Arimo'" font-size="18.75" lengthAdjust="spacing" textLength="318.7148" x="32.8125" y="980.7964">el fstype, el UUID, el montaje y fstab</text><ellipse cx="263.8704" cy="1050.3527" fill="none" rx="17.1875" ry="17.1875" style="stroke:#222222;stroke-width:1.5625;"/><ellipse cx="263.8704" cy="1050.3527" fill="#222222" rx="9.375" ry="9.375" style="stroke:#222222;stroke-width:1.5625;"/><line style="stroke:#181818;stroke-width:1.5625;" x1="263.8704" x2="263.8704" y1="46.875" y2="78.125"/><polygon fill="#181818" points="257.6204,62.5,263.8704,78.125,270.1204,62.5,263.8704,68.75" style="stroke:#181818;stroke-width:1.5625;"/><line style="stroke:#181818;stroke-width:1.5625;" x1="263.8704" x2="263.8704" y1="229.2004" y2="269.03"/><polygon fill="#181818" points="257.6204,253.405,263.8704,269.03,270.1204,253.405,263.8704,259.655" style="stroke:#181818;stroke-width:1.5625;"/><line style="stroke:#181818;stroke-width:1.5625;" x1="485.4917" x2="504.2417" y1="210.4504" y2="210.4504"/><polygon fill="#181818" points="497.9917,281.7988,504.2417,297.4238,510.4917,281.7988,504.2417,288.0488" style="stroke:#181818;stroke-width:1.5625;"/><line style="stroke:#181818;stroke-width:1.5625;" x1="504.2417" x2="504.2417" y1="210.4504" y2="375.8176"/><line style="stroke:#181818;stroke-width:1.5625;" x1="504.2417" x2="282.6204" y1="375.8176" y2="375.8176"/><polygon fill="#181818" points="298.2454,369.5676,282.6204,375.8176,298.2454,382.0676,291.9954,375.8176" style="stroke:#181818;stroke-width:1.5625;"/><line style="stroke:#181818;stroke-width:1.5625;" x1="263.8704" x2="263.8704" y1="325.8176" y2="357.0676"/><polygon fill="#181818" points="257.6204,341.4426,263.8704,357.0676,270.1204,341.4426,263.8704,347.6926" style="stroke:#181818;stroke-width:1.5625;"/><line style="stroke:#181818;stroke-width:1.5625;" x1="263.8704" x2="263.8704" y1="160.4504" y2="191.7004"/><polygon fill="#181818" points="257.6204,176.0754,263.8704,191.7004,270.1204,176.0754,263.8704,182.3254" style="stroke:#181818;stroke-width:1.5625;"/><line style="stroke:#181818;stroke-width:1.5625;" x1="263.8704" x2="263.8704" y1="463.3176" y2="503.1472"/><polygon fill="#181818" points="257.6204,487.5222,263.8704,503.1472,270.1204,487.5222,263.8704,493.7722" style="stroke:#181818;stroke-width:1.5625;"/><line style="stroke:#181818;stroke-width:1.5625;" x1="457.8887" x2="515.5189" y1="444.5676" y2="444.5676"/><polygon fill="#181818" points="509.2689,515.9161,515.5189,531.5411,521.7689,515.9161,515.5189,522.1661" style="stroke:#181818;stroke-width:1.5625;"/><line style="stroke:#181818;stroke-width:1.5625;" x1="515.5189" x2="515.5189" y1="444.5676" y2="609.9349"/><line style="stroke:#181818;stroke-width:1.5625;" x1="515.5189" x2="282.6204" y1="609.9349" y2="609.9349"/><polygon fill="#181818" points="298.2454,603.6849,282.6204,609.9349,298.2454,616.1849,291.9954,609.9349" style="stroke:#181818;stroke-width:1.5625;"/><line style="stroke:#181818;stroke-width:1.5625;" x1="263.8704" x2="263.8704" y1="559.9349" y2="591.1849"/><polygon fill="#181818" points="257.6204,575.5599,263.8704,591.1849,270.1204,575.5599,263.8704,581.8099" style="stroke:#181818;stroke-width:1.5625;"/><line style="stroke:#181818;stroke-width:1.5625;" x1="263.8704" x2="263.8704" y1="394.5676" y2="425.8176"/><polygon fill="#181818" points="257.6204,410.1926,263.8704,425.8176,270.1204,410.1926,263.8704,416.4426" style="stroke:#181818;stroke-width:1.5625;"/><line style="stroke:#181818;stroke-width:1.5625;" x1="263.8704" x2="263.8704" y1="697.4349" y2="737.2645"/><polygon fill="#181818" points="257.6204,721.6395,263.8704,737.2645,270.1204,721.6395,263.8704,727.8895" style="stroke:#181818;stroke-width:1.5625;"/><line style="stroke:#181818;stroke-width:1.5625;" x1="477.8948" x2="509.0782" y1="678.6849" y2="678.6849"/><polygon fill="#181818" points="502.8282,762.8022,509.0782,778.4272,515.3282,762.8022,509.0782,769.0522" style="stroke:#181818;stroke-width:1.5625;"/><line style="stroke:#181818;stroke-width:1.5625;" x1="509.0782" x2="509.0782" y1="678.6849" y2="869.5899"/><line style="stroke:#181818;stroke-width:1.5625;" x1="509.0782" x2="282.6204" y1="869.5899" y2="869.5899"/><polygon fill="#181818" points="298.2454,863.3399,282.6204,869.5899,298.2454,875.8399,291.9954,869.5899" style="stroke:#181818;stroke-width:1.5625;"/><line style="stroke:#181818;stroke-width:1.5625;" x1="263.8704" x2="263.8704" y1="819.5899" y2="850.8399"/><polygon fill="#181818" points="257.6204,835.2149,263.8704,850.8399,270.1204,835.2149,263.8704,841.4649" style="stroke:#181818;stroke-width:1.5625;"/><line style="stroke:#181818;stroke-width:1.5625;" x1="263.8704" x2="263.8704" y1="628.6849" y2="659.9349"/><polygon fill="#181818" points="257.6204,644.3099,263.8704,659.9349,270.1204,644.3099,263.8704,650.5599" style="stroke:#181818;stroke-width:1.5625;"/><line style="stroke:#181818;stroke-width:1.5625;" x1="263.8704" x2="263.8704" y1="888.3399" y2="919.5899"/><polygon fill="#181818" points="257.6204,903.9649,263.8704,919.5899,270.1204,903.9649,263.8704,910.2149" style="stroke:#181818;stroke-width:1.5625;"/><line style="stroke:#181818;stroke-width:1.5625;" x1="263.8704" x2="263.8704" y1="1001.9152" y2="1033.1652"/><polygon fill="#181818" points="257.6204,1017.5402,263.8704,1033.1652,270.1204,1017.5402,263.8704,1023.7902" style="stroke:#181818;stroke-width:1.5625;"/><?plantuml-src TLB1QXmn3BtxAqHEkp0DJPfSTWcb9AJqq59AqslHsfh6MTiQBC-G_PnyG0-bjrmAdH-hFDc4AI6NGHPFxpqzZHJCnSZMfmupHd3KOX_A9QVo2IF1mRli8n_C4Ps7ezFNiqvYHq8T79_CcXdJjZRVp96P--JEEIVAS7HipEeBMR_n6G8BA6IyYrIoreuW87px23i8f60AG5BGiSc40Imd2B89smRquvt2MfzSJ6LjV0kBltzqm7cnh4msgBPZi9Z9KgKkk55sBLIoUEivaRnTGhcc10iPVouDmEfSbJBq2VVmzv-_ganzxwV6tsaoKf_areQ242mIBmqbvzkzaV0__ic3U2aK9nUOxRKV-Bc5IyuHIxLHTUAsbKEwBIV03_LjAo3qOxnFqChtikle9HEQHjIBuWtfiMgIunsWBIeAoSyYeigawxuGXj9qVIerr4U-1d3yXQwU47MyA8qkp5c7hgu-N3mnQdHqGxRNtqr7bGHUuNEtgmiQE0pru5Ek9A3M1ZeRCF2ahqVjM7ortbJ9wJQD4bKPJQ2feAey5OzBxnvCh8qKxim_?></g></svg>